<?xml version="1.0" encoding="UTF-8"?>
<svg id="Layer_1" data-name="Layer 1" xmlns="http://www.w3.org/2000/svg" viewBox="0 0 493.28 433.53">
  <defs>
    <style>
      .cls-1 {
        fill: #341f86;
      }

      .cls-2 {
        fill: #d1d4eb;
      }

      .cls-3 {
        fill: #593fc0;
      }

      .cls-4 {
        fill: #362e81;
      }

      .cls-5 {
        fill: #f7e800;
      }

      .cls-6 {
        fill: #ff8736;
      }
    </style>
  </defs>
  <path class="cls-2" d="M247.87,144.54l-26.89,13.4-44.95,22.4c-7.58,3.78-16.79,.7-20.56-6.88-1.1-2.2-1.62-4.53-1.62-6.83,0-5.63,3.12-11.05,8.5-13.73l44.99-22.42,26.94-13.43c1.45,10.65,6.37,20.21,13.59,27.49Z"/>
  <path class="cls-2" d="M282.33,32.78c-42.87,0-77.62,34.75-77.62,77.62,0,6.95,.91,13.68,2.63,20.08,2.7,10.12,7.39,19.42,13.64,27.46,14.19,18.29,36.39,30.07,61.35,30.07,42.86,0,77.61-34.75,77.61-77.61,0-42.87-34.75-77.62-77.61-77.62Zm0,126.13c-13.48,0-25.67-5.5-34.46-14.37-7.22-7.28-12.14-16.84-13.59-27.49-.31-2.18-.46-4.4-.46-6.65,0-26.79,21.71-48.51,48.51-48.51,26.79,0,48.51,21.72,48.51,48.51,0,26.79-21.72,48.51-48.51,48.51Z"/>
  <path class="cls-4" d="M48.69,205c-1.19,.81-2.33,1.7-3.4,2.67,1.07-.97,2.2-1.87,3.4-2.67Z"/>
  <path class="cls-1" d="M95.46,259.87v110c0,16.57-13.43,30-30,30-8.28,0-15.78-3.36-21.21-8.79-5.43-5.43-8.79-12.93-8.79-21.21V229.87c0,16.57,13.44,30,30,30h30Z"/>
  <path class="cls-1" d="M195.12,229.87c0,8.28-3.36,15.78-8.79,21.21-5.42,5.43-12.92,8.79-21.21,8.79H95.46v-60h69.66c16.57,0,30,13.43,30,30Z"/>
  <rect class="cls-3" x="111.02" y="273.78" width="65.27" height="65.27" rx="32.64" ry="32.64"/>
  <path class="cls-3" d="M95.46,199.87v60h-30c-16.56,0-30-13.43-30-30,0-8.28,3.36-15.78,8.79-21.21,.34-.34,.69-.67,1.04-.99,1.07-.97,2.21-1.86,3.4-2.67,3.59-2.43,7.74-4.1,12.2-4.78,1-.16,2-.26,3.03-.31,.51-.03,1.02-.04,1.54-.04h30Z"/>
  <rect class="cls-1" x="146.1" y="269.96" width="200.18" height="60" rx="30" ry="30" transform="translate(546.15 53.77) rotate(90)"/>
  <path class="cls-1" d="M376.39,248.94l-37.03,51.18-37.93-52.42c-9.71-13.42-6.71-32.18,6.72-41.89,5.32-3.85,11.47-5.7,17.56-5.7,9.3,0,18.47,4.31,24.33,12.42l26.35,36.41Z"/>
  <path class="cls-1" d="M444.63,394.43c-5.32,3.84-11.47,5.69-17.56,5.69-9.3,0-18.47-4.3-24.34-12.41l-26.34-36.41,37.02-51.18,37.93,52.42c9.72,13.42,6.71,32.18-6.71,41.89Z"/>
  <path class="cls-3" d="M216.19,340.05h30c16.56,0,30,13.44,30,30h0c0,16.56-13.44,30-30,30h-30v-60h0Z" transform="translate(616.24 123.86) rotate(90)"/>
  <polygon class="cls-6" points="413.41 300.12 376.39 351.3 339.36 300.12 376.39 248.94 413.41 300.12"/>
  <path class="cls-5" d="M339.36,300.12l37.03,51.18-26.35,36.41c-5.87,8.11-15.03,12.41-24.33,12.41-6.1,0-12.25-1.85-17.56-5.69-13.43-9.71-16.43-28.47-6.72-41.89l37.93-52.42Z"/>
  <path class="cls-5" d="M451.34,247.7l-37.93,52.42-37.02-51.18,26.34-36.41c5.87-8.11,15.03-12.42,24.33-12.42,6.1,0,12.25,1.85,17.57,5.7,13.42,9.71,16.43,28.47,6.71,41.89Z"/>
</svg>