<?xml version="1.0" encoding="UTF-8"?>
<svg id="Layer_1" data-name="Layer 1" xmlns="http://www.w3.org/2000/svg" viewBox="0 0 840.77 840.77">
  <defs>
    <style>
      .cls-1 {
        fill: #fff;
      }

      .cls-2 {
        fill: #6e7fad;
      }
    </style>
  </defs>
  <circle class="cls-1" cx="420.38" cy="420.38" r="417.91"/>
  <g id="BW_NOTEXT" data-name="BW NOTEXT">
    <path class="cls-2" d="M772.45,314.66C728.45,157.64,587.34,51.02,419.69,52,217.02,53.18,52.71,216.3,52.71,418.98c0,57.78,13.36,112.45,37.15,161.07,13.89-15.3,31.36-24.49,51.28-29.35,30.68-7.49,60.91-4.17,90.51,5.28,20.49,6.54,39.27,4.77,56.94-7.66,1.6-1.13,3.62-1.67,6.64-3-.74,3.42-.94,5.55-1.66,7.47-1.63,4.36-3.27,8.75-5.34,12.9-12.24,24.64-31.19,40.02-59.19,43.35-11.2,1.33-22.42,3.1-33.39,5.7-13.66,3.25-23.05,11.88-28.15,25.22-4.61,12.07-7.86,24.39-8.23,37.32v.26c17.84,17.96,37.52,34.09,58.73,48.07,6.33-13.15,11.77-25.7,18.52-37.51,31.3-54.81,75.18-94.66,136.43-113.83,28.45-8.91,57.75-10.6,87.17-12.46,42.83-2.7,85.66-5.65,128.44-9.18,10.98-.9,21.76-2.58,32.3-5.07,.06-.01,.12-.03,.19-.04,19.32-4.55,37.86-11.8,55.5-21.92,32.13-18.41,58.55-41.99,75.81-73.79,3.45-6.34,32.83-59.32,20.09-137.15h0Zm-22.96,94.1c-6.24,24.28-21.21,43.13-37.96,60.59-30.07,31.33-67.73,48.67-109.78,57.31-30.94,6.35-62.12,6.86-93.44,3.8-.46-.04-.89-.31-2.43-.86,14.31-7.88,25.72-17.93,35.62-29.77,17.36-20.74,27.92-44.35,30.4-71.41,2.84-30.95-6.39-58.79-27.97-80.14-23.19-22.94-37.66-29.43-61.06-34.03-8.74-1.72-14.05-4.59-21.36-2.56-5.64,1.56-10.54,4.07-11.39,4.46-33.6,15.39-63.43,27.29-96.66,43.48-23.32,11.37-45.6,24.87-68.67,36.78-13.43,6.94-27.51,12.61-41.28,18.87-5.21,2.37-9.65,.9-12.92-3.26-2.85-3.63-5.46-7.62-7.28-11.84-2.84-6.55-5.31-13.32-7.25-20.19-2.94-10.4-1.26-20.13,5.95-28.55,.55-.64,1.05-1.3,1.58-1.94,3.16-3.8,4.39-6.74,.65-11.88-10.73-14.72-6.17-34.99,8.92-45.19,7.34-4.96,14.96-8.52,23.99-8.93,1.31-.05,3.25-2.49,3.64-4.13,3.6-14.97,1.19-29.43-4.38-43.49-3.51-8.86-1.64-18.3,5.29-23.52,1.11-.84,4.06-.95,4.94-.11,7.24,6.85,14.38,13.82,21.16,21.13,4.14,4.46,5.33,9.91,4.38,16.23-.83,5.59-.17,11.39-.17,18.05,8.17-7.4,15.62-14.16,23.99-21.74-15.39-13.07-30.4-25.83-45.9-39,9.04-5.45,17.95-10.87,26.94-16.15,.79-.46,2.4-.36,3.18,.16,9.03,6.01,18.03,12.23,23.82,21.65,1.61,2.61,1.74,6.56,1.45,9.81-.5,5.55-1.85,11.03-2.85,16.54,.41,.24,.82,.49,1.23,.73,7.94-5.47,15.88-10.95,24.36-16.8-11.92-15.2-26.7-26.48-43.74-36.23,1.67-1.24,2.7-2.24,3.93-2.87,19.36-9.86,30.97-6.88,45.04,5.92,4.09,3.73,5.19,7.98,3.05,13.5-1.88,4.87-2.54,10.21-3.73,15.35,.36,.27,.73,.54,1.09,.81,8.49-4.59,16.97-9.17,26.1-14.1-8.2-12.24-19.16-21.05-32.45-29.26,2.53-.51,3.7-.9,4.89-.97,13.59-.8,26.13,2.52,37.38,10.16,9.58,6.51,19.59,8.19,31.18,6.35,87-13.82,170.13-3,247.66,40.75,24.02,13.55,44.87,31.05,60.99,53.71,26.79,37.64,31.14,78.91,19.87,122.78h0Z"/>
    <path class="cls-2" d="M288.43,308.7c-1.06,3.22-3.59,4.16-6.78,3.45-3.41-.76-6.76-1.83-10.21-2.34-13.51-2-24.13,2.55-31.5,14.27-3.06,4.89-6.29,9.67-9.47,14.54-9.43-7.79-11.18-23.38-4.34-34.59,6.67-10.92,20.62-16.58,31.01-12.3-.61,2.28-1.22,4.61-2.01,7.58,6.62,0,12.88-.3,19.09,.12,3.59,.24,7.17,1.45,10.62,2.61,3.02,1.02,4.67,3.37,3.59,6.66Z"/>
    <path class="cls-2" d="M378.17,316.85c-1.94,7.97-8.23,16.74-16.27,20.5-6.1,2.85-11.29,3.92-15.28,4.2-5.08,.35-7.42-.7-3.64-1.47,7.18-1.46,13.64-5.38,19.27-11.85,5.5-6.33,8.59-13.88,8.56-22.1-.03-11.28-4.18-19.57-12.88-26.25-6.83-5.26-15.58-7.68-24.27-7.25-2.27,.11-2.84-1.29-.73-2.04,4.85-1.72,10.09-2.17,15.06-1.49,8.38,1.16,15.01,4.44,21.28,10.25,1.76,1.64,14.93,12.7,8.9,37.5h0Z"/>
    <path class="cls-2" d="M347.25,306.23c.1,5.19-4.83,9.82-10.48,9.86-5.26,.04-9.8-4.76-9.92-10.47-.11-5.15,4.78-9.74,10.51-9.85,5.21-.11,9.79,4.73,9.89,10.46h0Z"/>
  </g>
</svg>