<?xml version="1.0" encoding="utf-8"?>
<!-- Generator: Adobe Illustrator 26.5.3, SVG Export Plug-In . SVG Version: 6.00 Build 0)  -->
<svg version="1.1" id="Layer_2_00000132781345888621156380000014881183124505519520_"
	 xmlns="http://www.w3.org/2000/svg" xmlns:xlink="http://www.w3.org/1999/xlink" x="0px" y="0px" viewBox="0 0 10 10"
	 style="enable-background:new 0 0 10 10;" xml:space="preserve">
<style type="text/css">
	.st0{fill:#98A8D2;}
</style>
<path class="st0" d="M6.1,3.9C7,4.8,7,6.4,6.1,7.3l0,0l-1,1c-0.9,0.9-2.5,0.9-3.4,0s-0.9-2.4,0-3.4l0.6-0.6c0.2-0.2,0.4-0.1,0.4,0.2
	c0,0.3,0.1,0.6,0.2,0.8c0,0.1,0,0.2-0.1,0.3L2.6,5.8C2.1,6.3,2.1,7,2.5,7.4s1.2,0.4,1.6,0l1.1-1.1c0.4-0.4,0.4-1.2,0-1.6
	c0,0-0.1,0-0.1-0.1C5,4.6,4.9,4.5,4.9,4.4S5,4.1,5.1,4l0.3-0.3c0.1-0.1,0.2-0.1,0.3,0C5.9,3.7,6,3.8,6.1,3.9L6.1,3.9z M8.3,1.7
	c-0.9-0.9-2.4-0.9-3.4,0l-1,1l0,0c-0.9,1-1,2.5,0,3.4C4,6.2,4.1,6.3,4.2,6.4s0.2,0.1,0.3,0L4.8,6C5,5.9,5,5.7,5,5.5
	c0-0.1,0-0.2-0.1-0.2S4.8,5.2,4.7,5.2C4.3,4.8,4.3,4,4.7,3.6l1.1-1.1c0.4-0.4,1.2-0.4,1.6,0s0.4,1.2,0,1.6L7.2,4.4
	c-0.1,0-0.1,0.1-0.1,0.2c0.1,0.3,0.1,0.6,0.2,0.8c0,0.2,0.3,0.3,0.4,0.2L8.3,5C9.2,4.1,9.2,2.6,8.3,1.7L8.3,1.7z"/>
</svg>
