<?xml version="1.0" encoding="utf-8"?>
<!-- Generator: Adobe Illustrator 26.5.3, SVG Export Plug-In . SVG Version: 6.00 Build 0)  -->
<svg version="1.1" id="Layer_3" xmlns="http://www.w3.org/2000/svg" xmlns:xlink="http://www.w3.org/1999/xlink" x="0px" y="0px"
	 viewBox="0 0 10 10" style="enable-background:new 0 0 10 10;" xml:space="preserve">
<style type="text/css">
	.st0{fill:#C6B5DB;}
</style>
<path class="st0" d="M3.5,8.3c-0.2,0-0.3-0.1-0.4-0.2L1.9,5.7H1.3C1,5.7,0.8,5.5,0.8,5.2S1,4.8,1.3,4.8h0.9c0.2,0,0.3,0.1,0.4,0.2
	l0.8,1.6l1.5-5.1C4.9,1.4,5,1.3,5.2,1.3h3.1c0.2,0,0.4,0.2,0.4,0.4S8.5,2.1,8.3,2.1H5.6L3.9,8C3.8,8.2,3.7,8.3,3.5,8.3
	C3.5,8.3,3.5,8.3,3.5,8.3z M8.8,8.3c-0.1,0-0.2,0-0.3-0.1l-1-1l-1,1C6.2,8.4,6,8.4,5.8,8.2s-0.2-0.4,0-0.6l1-1l-1-1
	c-0.2-0.2-0.2-0.4,0-0.6s0.4-0.2,0.6,0l1,1l1-1c0.2-0.2,0.4-0.2,0.6,0s0.2,0.4,0,0.6l-1,1l1,1c0.2,0.2,0.2,0.4,0,0.6
	C9,8.3,8.9,8.3,8.8,8.3z"/>
</svg>
