<?xml version="1.0" encoding="utf-8"?>
<!-- Generator: Adobe Illustrator 26.5.3, SVG Export Plug-In . SVG Version: 6.00 Build 0)  -->
<svg version="1.1" id="Layer_2_00000132781345888621156380000014881183124505519520_"
	 xmlns="http://www.w3.org/2000/svg" xmlns:xlink="http://www.w3.org/1999/xlink" x="0px" y="0px" viewBox="0 0 10 10"
	 style="enable-background:new 0 0 10 10;" xml:space="preserve">
<style type="text/css">
	.st0{fill:#98A8D2;}
</style>
<path class="st0" d="M7.7,6H7.2C7.1,6,7,6.1,7,6.2V8H2V3h2.2c0.1,0,0.2-0.1,0.2-0.2V2.3C4.5,2.1,4.4,2,4.3,2H1.8C1.4,2,1,2.4,1,2.8
	v5.5C1,8.6,1.4,9,1.8,9l0,0h5.5C7.6,9,8,8.6,8,8.2l0,0v-2C8,6.1,7.9,6,7.7,6z M8.6,1h-2C6.3,1,6.1,1.4,6.4,1.7l0.6,0.6L3.1,6
	C3,6.1,3,6.4,3.1,6.5c0,0,0,0,0,0l0.4,0.4C3.6,7,3.9,7,4,6.9c0,0,0,0,0,0l3.8-3.8l0.6,0.6C8.6,3.9,9,3.7,9,3.4v-2C9,1.2,8.8,1,8.6,1
	z"/>
</svg>
